
    <svg viewBox="0 0 48 48" xmlns="http://www.w3.org/2000/svg" fill="none" stroke="currentColor" class="icon">
        <path d="M24.02 35.353c6.076 0 11-4.924 11-11 0-6.075-4.924-11-11-11-6.075 0-11 4.925-11 11 0 6.076 4.925 11 11 11Z" fill="var(--icon-fill, none)" stroke="var(--icon-stroke, currentColor)"></path><path d="m38.96 9.01-2.46 2.474M11.067 36.745l-2.046 2.059M24 41.353v3m20-20.999h-4m-2.468 12.982L40 38.804" fill="var(--icon-fill, none)" stroke="var(--icon-stroke, currentColor)"></path><path d="M24.02 17.354a7 7 0 1 0 0 14" fill="var(--icon-fill, none)" stroke="var(--icon-stroke, currentColor)"></path><path d="M4 24.354h4M10.044 9.01l2.053 2.053M24 3.354v4" fill="var(--icon-fill, none)" stroke="var(--icon-stroke, currentColor)"></path>
    </svg>
  