
    <svg viewBox="0 0 48 48" xmlns="http://www.w3.org/2000/svg" fill="none" stroke="currentColor" class="icon">
        <path d="M44 18.965c-6.775-6.42-15.881-8.96-24.5-7.617M38 25.799a19.705 19.705 0 0 0-9.5-5.284M10 25.799a19.814 19.814 0 0 1 4.36-3.299M16 32.314a11.261 11.261 0 0 1 5-2.91" fill="var(--icon-fill, none)" stroke="var(--icon-stroke, currentColor)"></path><path d="M24 40a2.5 2.5 0 1 0 0-5 2.5 2.5 0 0 0 0 5Z" fill="var(--icon-fill, none)" stroke="var(--icon-stroke, currentColor)"></path><path d="M40 40 8 8M4 18.965a29.317 29.317 0 0 1 3.5-2.84" fill="var(--icon-fill, none)" stroke="var(--icon-stroke, currentColor)"></path>
    </svg>
  