
    <svg viewBox="0 0 48 48" xmlns="http://www.w3.org/2000/svg" fill="none" stroke="currentColor" class="icon">
        <path d="M24 44c11.046 0 20-8.954 20-20S35.046 4 24 4 4 12.954 4 24s8.954 20 20 20Z" fill="var(--icon-fill, none)" stroke="var(--icon-stroke, currentColor)"></path><path d="M31 7v17V7Z" fill="var(--icon-fill, none)" stroke="var(--icon-stroke, currentColor)"></path><path d="M31 7v17" fill="var(--icon-fill, none)" stroke="var(--icon-stroke, currentColor)"></path><path d="m16.636 6.636 14.142 14.142L16.636 6.636Z" fill="var(--icon-fill, none)" stroke="var(--icon-stroke, currentColor)"></path><path d="m16.636 6.636 14.142 14.142" fill="var(--icon-fill, none)" stroke="var(--icon-stroke, currentColor)"></path><path d="M7 17h17H7Z" fill="var(--icon-fill, none)" stroke="var(--icon-stroke, currentColor)"></path><path d="M7 17h17" fill="var(--icon-fill, none)" stroke="var(--icon-stroke, currentColor)"></path><path d="M20.364 17.636 6.222 31.778l14.142-14.142Z" fill="var(--icon-fill, none)" stroke="var(--icon-stroke, currentColor)"></path><path d="M20.364 17.636 6.222 31.778" fill="var(--icon-fill, none)" stroke="var(--icon-stroke, currentColor)"></path><path d="M17 25v17-17Z" fill="var(--icon-fill, none)" stroke="var(--icon-stroke, currentColor)"></path><path d="M17 25v17" fill="var(--icon-fill, none)" stroke="var(--icon-stroke, currentColor)"></path><path d="m17.636 27.636 14.142 14.142-14.142-14.142Z" fill="var(--icon-fill, none)" stroke="var(--icon-stroke, currentColor)"></path><path d="m17.636 27.636 14.142 14.142" fill="var(--icon-fill, none)" stroke="var(--icon-stroke, currentColor)"></path><path d="M24 31h18-18Z" fill="var(--icon-fill, none)" stroke="var(--icon-stroke, currentColor)"></path><path d="M24 31h18" fill="var(--icon-fill, none)" stroke="var(--icon-stroke, currentColor)"></path><path d="M42.364 16.636 28.222 30.778l14.142-14.142Z" fill="var(--icon-fill, none)" stroke="var(--icon-stroke, currentColor)"></path><path d="M42.364 16.636 28.222 30.778" fill="var(--icon-fill, none)" stroke="var(--icon-stroke, currentColor)"></path><path d="M24 31a7 7 0 1 0 0-14 7 7 0 0 0 0 14Z" fill="var(--icon-fill, none)" stroke="var(--icon-stroke, currentColor)"></path>
    </svg>
  