
    <svg viewBox="0 0 48 48" xmlns="http://www.w3.org/2000/svg" fill="none" stroke="currentColor" class="icon">
        <path d="M39 6H9a3 3 0 0 0-3 3v30a3 3 0 0 0 3 3h30a3 3 0 0 0 3-3V9a3 3 0 0 0-3-3Z" fill="var(--icon-fill, none)" stroke="var(--icon-stroke, currentColor)"></path><path d="M24 28.625v-4a6 6 0 1 0-6-6" fill="var(--icon-fill, none)" stroke="var(--icon-stroke, currentColor)"></path><path d="M24 37.625a2.5 2.5 0 1 0 0-5 2.5 2.5 0 0 0 0 5Z" fill="var(--icon-fill, none)" stroke="var(--icon-stroke, currentColor)"></path>
    </svg>
  