
    <svg viewBox="0 0 48 48" xmlns="http://www.w3.org/2000/svg" fill="none" stroke="currentColor" class="icon">
        <path d="M37.804 5H10.196a2 2 0 0 0-1.991 2.187l2.688 28.666a2 2 0 0 0 1.153 1.63l11.116 5.13a2 2 0 0 0 1.676 0l11.116-5.13a2 2 0 0 0 1.154-1.63l2.687-28.666A2 2 0 0 0 37.804 5Z" fill="var(--icon-fill, none)" stroke="var(--icon-stroke, currentColor)"></path><path d="M32 12H16l1 9h14l-1 11-6 3-6-3-.5-5" fill="var(--icon-fill, none)" stroke="var(--icon-stroke, currentColor)"></path>
    </svg>
  