
    <svg viewBox="0 0 48 48" xmlns="http://www.w3.org/2000/svg" fill="none" stroke="currentColor" class="icon">
        <path d="M9.858 32.757C6.238 33.843 4 35.343 4 37c0 3.314 8.954 6 20 6s20-2.686 20-6c0-1.657-2.239-3.157-5.858-4.243" fill="var(--icon-fill, none)" stroke="var(--icon-stroke, currentColor)"></path><path d="M24 35s13-8.496 13-18.318C37 9.678 31.18 4 24 4S11 9.678 11 16.682C11 26.504 24 35 24 35Z" fill="var(--icon-fill, none)" stroke="var(--icon-stroke, currentColor)"></path><path d="M24 22a5 5 0 1 0 0-10 5 5 0 0 0 0 10Z" fill="var(--icon-fill, none)" stroke="var(--icon-stroke, currentColor)"></path>
    </svg>
  