
    <svg viewBox="0 0 48 48" xmlns="http://www.w3.org/2000/svg" fill="none" stroke="currentColor" class="icon">
        <path d="M44 24v16.818C44 42.023 43.105 43 42 43H6c-1.105 0-2-.977-2-2.182V24l20 13 20-13Z" fill="var(--icon-fill, none)" stroke="var(--icon-stroke, currentColor)"></path><path d="m4 23.784 10-6.892m30 6.892-10-6.892" fill="var(--icon-fill, none)" stroke="var(--icon-stroke, currentColor)"></path><path d="M34 5H14v24.415a2 2 0 0 0 .91 1.677l8 5.2a2 2 0 0 0 2.18 0l8-5.2a2 2 0 0 0 .91-1.677V5Z" fill="var(--icon-fill, none)" stroke="var(--icon-stroke, currentColor)"></path><path d="M20 13h4m-4 6h8" fill="var(--icon-fill, none)" stroke="var(--icon-stroke, currentColor)"></path>
    </svg>
  