
    <svg viewBox="0 0 48 48" xmlns="http://www.w3.org/2000/svg" fill="none" stroke="currentColor" class="icon">
        <path d="M18 4H6a2 2 0 0 0-2 2v12a2 2 0 0 0 2 2h12a2 2 0 0 0 2-2V6a2 2 0 0 0-2-2Zm0 24H6a2 2 0 0 0-2 2v12a2 2 0 0 0 2 2h12a2 2 0 0 0 2-2V30a2 2 0 0 0-2-2ZM42 4H30a2 2 0 0 0-2 2v12a2 2 0 0 0 2 2h12a2 2 0 0 0 2-2V6a2 2 0 0 0-2-2Z" fill="var(--icon-fill, none)" stroke="var(--icon-stroke, currentColor)"></path><path d="M28 28h16m-8 8h8m-16 8h16" fill="var(--icon-fill, none)" stroke="var(--icon-stroke, currentColor)"></path>
    </svg>
  