
    <svg viewBox="0 0 48 48" xmlns="http://www.w3.org/2000/svg" fill="none" stroke="currentColor" class="icon">
        <path d="M30 34.5a3.5 3.5 0 0 1 3.5-3.5H41v3.4a3.6 3.6 0 0 1-3.6 3.6h-3.9a3.5 3.5 0 0 1-3.5-3.5Zm-24 4A3.5 3.5 0 0 1 9.5 35H16v3.4a3.6 3.6 0 0 1-3.6 3.6H9.5A3.5 3.5 0 0 1 6 38.5Z" fill="var(--icon-fill, none)" stroke="var(--icon-stroke, currentColor)"></path><path d="M16 18.044v0l25-5.919M16 38V10l25-6v29.692" fill="var(--icon-fill, none)" stroke="var(--icon-stroke, currentColor)"></path>
    </svg>
  