
    <svg viewBox="0 0 48 48" xmlns="http://www.w3.org/2000/svg" fill="none" stroke="currentColor" class="icon">
        <path d="M5 10a2 2 0 0 1 2-2h34a2 2 0 0 1 2 2v28a2 2 0 0 1-2 2H7a2 2 0 0 1-2-2V10Z" fill="var(--icon-fill, none)" stroke="var(--icon-stroke, currentColor)"></path><path d="M14.5 18a1.5 1.5 0 1 0 0-3 1.5 1.5 0 0 0 0 3Z" fill="var(--icon-fill, none)" stroke="var(--icon-stroke, currentColor)"></path><path d="m15 24 5 4 6-7 17 13v4a2 2 0 0 1-2 2H7a2 2 0 0 1-2-2v-4l10-10Z" fill="var(--icon-fill, none)" stroke="var(--icon-stroke, currentColor)"></path>
    </svg>
  