<svg viewBox="0 0 48 48" fill="none" xmlns="http://www.w3.org/2000/svg"><path data-follow-stroke="#333" data-follow-fill="#333" d="M24.02 35.353c6.076 0 11-4.924 11-11 0-6.075-4.924-11-11-11-6.075 0-11 4.925-11 11 0 6.076 4.925 11 11 11Z" fill="#333" stroke="#333" stroke-width="4" stroke-linejoin="round"/><path data-follow-stroke="#333" d="m38.96 9.01-2.46 2.474M11.067 36.745l-2.046 2.059M24 41.353v3m20-20.999h-4m-2.468 12.982L40 38.804" stroke="#333" stroke-width="4" stroke-linecap="round"/><path fill-rule="evenodd" clip-rule="evenodd" d="M24.02 17.354a7 7 0 1 0 0 14" fill="#FFF"/><path data-follow-stroke="#333" d="M4 24.354h4M10.044 9.01l2.053 2.053M24 3.354v4" stroke="#333" stroke-width="4" stroke-linecap="round"/></svg>