<svg xmlns="http://www.w3.org/2000/svg" fill="none" viewBox="0 0 48 48"><path stroke-linejoin="round" stroke-width="4" stroke="#333" d="M24.02 35.353c6.076 0 11-4.924 11-11 0-6.075-4.924-11-11-11-6.075 0-11 4.925-11 11 0 6.076 4.925 11 11 11Z" data-follow-stroke="#333"/><path stroke-linecap="round" stroke-width="4" stroke="#333" d="m38.96 9.01-2.46 2.474M11.067 36.745l-2.046 2.059M24 41.353v3M44 23.354h-4M37.532 36.336 40 38.804" data-follow-stroke="#333"/><path fill="#333" d="M24.02 17.354a7 7 0 1 0 0 14" clip-rule="evenodd" fill-rule="evenodd" data-follow-fill="#333"/><path stroke-linecap="round" stroke-width="4" stroke="#333" d="M4 24.354h4M10.044 9.01l2.053 2.053M24 3.354v4" data-follow-stroke="#333"/></svg>