<svg xmlns="http://www.w3.org/2000/svg" fill="none" viewBox="0 0 48 48"><path stroke-linejoin="round" stroke-linecap="round" stroke-width="4" stroke="#333" fill="#333" d="M5 10v28a2 2 0 0 0 2 2h11l-3-11 7-2-1-7 8-4-2-3 3-5H7a2 2 0 0 0-2 2ZM43 38V10a2 2 0 0 0-2-2h-3l-4 6 3 5-9 4 1 8-7 2 2 7h17a2 2 0 0 0 2-2Z" data-follow-fill="#333" data-follow-stroke="#333"/><path stroke-linejoin="round" stroke-linecap="round" stroke-width="4" stroke="#FFF" fill="#FFF" d="M14.5 18a1.5 1.5 0 1 0 0-3 1.5 1.5 0 0 0 0 3Z" clip-rule="evenodd" fill-rule="evenodd"/></svg>