<svg viewBox="0 0 48 48" fill="none" xmlns="http://www.w3.org/2000/svg"><path data-follow-stroke="#333" data-follow-fill="#333" d="M24 44a19.937 19.937 0 0 0 14.142-5.858A19.937 19.937 0 0 0 44 24a19.938 19.938 0 0 0-5.858-14.142A19.937 19.937 0 0 0 24 4 19.938 19.938 0 0 0 9.858 9.858 19.938 19.938 0 0 0 4 24a19.937 19.937 0 0 0 5.858 14.142A19.938 19.938 0 0 0 24 44Z" fill="#333" stroke="#333" stroke-width="4" stroke-linejoin="round"/><path d="M24 28.625v-4a6 6 0 1 0-6-6" stroke="#FFF" stroke-width="4" stroke-linecap="round" stroke-linejoin="round"/><path fill-rule="evenodd" clip-rule="evenodd" d="M24 37.625a2.5 2.5 0 1 0 0-5 2.5 2.5 0 0 0 0 5Z" fill="#FFF"/></svg>