<svg viewBox="0 0 48 48" fill="none" xmlns="http://www.w3.org/2000/svg"><path data-follow-stroke="#333" d="M39 6H9a3 3 0 0 0-3 3v30a3 3 0 0 0 3 3h30a3 3 0 0 0 3-3V9a3 3 0 0 0-3-3Z" stroke="#333" stroke-width="4" stroke-linejoin="round"/><path data-follow-stroke="#333" d="M24 28.625v-4a6 6 0 1 0-6-6" stroke="#333" stroke-width="4" stroke-linecap="round" stroke-linejoin="round"/><path data-follow-fill="#333" fill-rule="evenodd" clip-rule="evenodd" d="M24 37.625a2.5 2.5 0 1 0 0-5 2.5 2.5 0 0 0 0 5Z" fill="#333"/></svg>