<svg viewBox="0 0 48 48" fill="none" xmlns="http://www.w3.org/2000/svg"><path data-follow-stroke="#333" data-follow-fill="#333" d="M18 4H6a2 2 0 0 0-2 2v12a2 2 0 0 0 2 2h12a2 2 0 0 0 2-2V6a2 2 0 0 0-2-2Zm0 24H6a2 2 0 0 0-2 2v12a2 2 0 0 0 2 2h12a2 2 0 0 0 2-2V30a2 2 0 0 0-2-2ZM42 4H30a2 2 0 0 0-2 2v12a2 2 0 0 0 2 2h12a2 2 0 0 0 2-2V6a2 2 0 0 0-2-2Z" fill="#333" stroke="#333" stroke-width="4" stroke-linejoin="round"/><path data-follow-stroke="#333" d="M28 28h16m-8 8h8m-16 8h16" stroke="#333" stroke-width="4" stroke-linecap="round" stroke-linejoin="round"/></svg>