<svg xmlns="http://www.w3.org/2000/svg" fill="none" viewBox="0 0 48 48"><path stroke-linejoin="round" stroke-linecap="round" stroke-width="4" stroke="#333" d="M24 4C12.954 4 4 12.954 4 24s8.954 20 20 20 20-8.954 20-20a19.94 19.94 0 0 0-2.358-9.43" data-follow-stroke="#333"/><path stroke-linejoin="round" stroke-width="4" stroke="#333" d="M35 10c2.21 0 4-1.343 4-3s-1.79-3-4-3-4 1.343-4 3 1.79 3 4 3ZM24 31a7 7 0 1 0 0-14 7 7 0 0 0 0 14Z" data-follow-stroke="#333"/><path stroke-linejoin="round" stroke-linecap="round" stroke-width="4" stroke="#333" d="M31 6.5V24" data-follow-stroke="#333"/></svg>